<?xml version="1.0" standalone="no"?>
<!DOCTYPE svg PUBLIC "-//W3C//DTD SVG 20010904//EN"
 "http://www.w3.org/TR/2001/REC-SVG-20010904/DTD/svg10.dtd">
<svg version="1.0" xmlns="http://www.w3.org/2000/svg"
 width="930.000000pt" height="930.000000pt" viewBox="0 0 930.000000 930.000000"
 preserveAspectRatio="xMidYMid meet">
<metadata>
Created by potrace 1.11, written by Peter Selinger 2001-2013
</metadata>
<g transform="translate(0.000000,930.000000) scale(0.100000,-0.100000)"
fill="#000000" stroke="none">
<path d="M1505 7687 c-58 -22 -163 -84 -192 -113 -8 -8 -19 -14 -23 -14 -9 0
-254 -241 -316 -310 -132 -149 -404 -519 -404 -550 0 -5 -4 -10 -10 -10 -5 0
-10 -4 -10 -10 0 -8 -22 -47 -100 -180 -31 -52 -90 -174 -90 -185 0 -7 -4 -15
-8 -17 -6 -2 -93 -197 -98 -218 0 -3 -4 -14 -8 -25 -34 -90 -87 -246 -92 -270
-1 -5 -7 -30 -14 -55 -7 -25 -13 -52 -15 -60 -2 -8 -10 -42 -18 -75 -9 -33
-18 -73 -21 -90 -2 -16 -9 -52 -14 -80 -6 -27 -13 -75 -17 -105 -3 -30 -9 -68
-12 -85 -14 -76 -26 -304 -26 -480 0 -229 18 -511 40 -635 4 -19 6 -38 5 -42
-6 -29 86 -466 117 -558 5 -14 19 -59 31 -100 12 -41 25 -84 29 -95 5 -11 32
-81 61 -155 123 -316 348 -703 541 -933 10 -12 35 -42 55 -67 190 -234 376
-415 513 -497 153 -92 286 -70 351 57 11 21 21 51 22 67 3 43 -12 110 -28 124
-8 6 -14 16 -14 22 0 18 -63 87 -227 252 -88 88 -194 203 -237 255 -43 52 -85
104 -94 115 -9 11 -49 67 -89 125 -40 58 -77 110 -83 117 -5 7 -10 14 -10 17
0 2 -20 39 -45 80 -50 85 -129 240 -170 331 -102 231 -205 576 -239 803 -3 18
-8 52 -12 75 -10 67 -13 89 -19 142 -3 28 -8 64 -10 80 -22 160 -22 666 -1
795 2 14 7 52 10 85 3 33 8 70 10 81 3 12 7 39 10 60 10 62 36 184 53 249 8
33 16 65 17 70 12 52 81 265 96 294 4 9 20 48 36 86 61 154 183 381 297 550
43 63 147 203 169 226 7 8 29 34 49 59 50 61 95 109 272 290 162 166 178 184
233 260 69 96 46 195 -55 242 -66 31 -125 32 -196 5z"/>
<path d="M7637 7663 c-69 -31 -117 -98 -122 -170 -2 -40 3 -63 28 -114 25 -52
63 -97 208 -244 193 -197 214 -218 268 -285 20 -25 39 -47 42 -50 37 -31 289
-405 289 -428 0 -7 3 -12 8 -12 4 0 12 -10 18 -23 117 -231 138 -276 136 -289
-1 -5 2 -8 8 -8 5 0 10 -7 10 -15 0 -8 4 -23 9 -33 12 -21 53 -123 56 -137 1
-5 8 -23 14 -40 7 -16 14 -37 16 -46 2 -9 11 -39 20 -65 9 -27 18 -57 20 -66
2 -9 13 -50 24 -90 11 -40 22 -84 25 -98 2 -14 11 -59 19 -100 9 -41 18 -91
21 -110 3 -19 8 -44 10 -56 2 -12 7 -45 11 -75 3 -30 8 -72 11 -93 13 -97 17
-201 17 -466 0 -266 -4 -363 -18 -451 -3 -20 -7 -51 -9 -70 -5 -47 -24 -150
-42 -234 -9 -38 -17 -77 -19 -85 -50 -241 -217 -651 -350 -860 -16 -25 -27
-47 -26 -49 2 -2 -1 -7 -6 -10 -4 -3 -30 -40 -58 -81 -121 -185 -291 -387
-464 -554 -268 -259 -302 -299 -308 -375 -9 -106 77 -186 199 -185 31 0 64 6
72 13 9 8 16 11 16 7 0 -14 121 56 196 112 87 66 241 214 319 307 28 33 55 65
61 70 6 6 38 44 71 87 34 42 66 82 72 90 6 7 29 38 51 68 22 30 43 60 48 66 5
5 15 21 22 35 7 13 16 26 19 29 13 11 51 70 51 80 0 5 4 10 8 10 5 0 16 15 25
33 9 17 21 39 27 47 45 67 220 406 220 425 0 2 11 28 24 57 13 29 34 80 45
113 12 33 26 69 31 80 5 11 16 45 25 75 9 30 19 62 22 70 3 8 7 20 8 25 1 6
14 53 28 105 14 52 28 106 31 120 2 14 12 63 21 110 20 99 21 108 30 175 18
129 28 240 29 312 1 29 4 53 8 53 4 0 3 11 -2 24 -5 13 -6 26 -4 29 8 8 10
207 2 207 -4 0 -3 13 2 29 4 16 6 32 3 35 -4 3 -7 44 -9 90 -1 46 -5 110 -9
142 -3 33 -8 83 -11 111 -2 29 -6 65 -8 80 -3 16 -8 51 -11 78 -3 28 -9 64
-12 80 -4 17 -7 37 -8 45 -3 25 -34 172 -57 270 -19 81 -76 280 -96 330 -3 8
-6 18 -7 23 -2 4 -4 9 -5 12 -1 3 -3 8 -5 13 -1 4 -5 16 -9 27 -4 11 -13 34
-18 50 -49 139 -204 466 -272 573 -14 23 -26 44 -26 47 0 10 -154 242 -223
335 -115 156 -203 258 -336 391 -190 188 -310 271 -422 288 -41 7 -58 4 -102
-16z"/>
<path d="M3693 7313 c-57 -23 -42 -68 35 -107 51 -26 101 -71 173 -156 51 -61
129 -183 129 -203 0 -7 4 -17 9 -23 24 -25 65 -221 63 -299 -6 -208 -80 -433
-226 -690 -19 -33 -44 -78 -56 -100 -12 -21 -30 -50 -41 -63 -10 -14 -19 -31
-19 -38 0 -8 -4 -14 -10 -14 -5 0 -10 -7 -10 -15 0 -8 -4 -15 -10 -15 -5 0
-10 -6 -10 -12 0 -7 -11 -26 -25 -42 -14 -16 -25 -35 -25 -43 0 -7 -4 -13 -9
-13 -5 0 -15 -12 -22 -27 -8 -16 -58 -94 -111 -174 -170 -258 -311 -507 -358
-629 -11 -30 -25 -64 -30 -75 -17 -36 -61 -198 -70 -260 -9 -62 -6 -311 4
-355 4 -14 8 -39 11 -56 7 -55 50 -212 74 -269 110 -263 301 -508 533 -683 53
-39 99 -72 102 -72 4 0 12 -5 19 -10 37 -31 261 -150 283 -150 3 0 20 -6 37
-14 18 -7 46 -18 62 -24 17 -6 39 -13 50 -18 11 -4 25 -8 30 -9 6 -2 29 -8 52
-14 63 -17 113 10 97 54 -7 16 -82 55 -107 55 -9 0 -17 5 -17 12 0 6 -3 9 -6
5 -15 -15 -158 83 -222 152 -63 69 -149 221 -187 331 -1 3 -4 12 -8 20 -4 13
-13 46 -22 85 -5 21 -16 82 -22 125 -12 90 -5 300 10 300 5 0 6 4 2 9 -7 12 5
41 57 149 23 45 44 82 49 82 4 0 10 8 13 18 12 35 124 142 292 278 60 48 115
94 121 100 7 7 23 21 35 31 67 54 141 163 175 257 43 121 33 299 -21 381 -8
11 -34 41 -60 66 -54 55 -63 102 -23 115 31 11 77 11 77 1 0 -4 4 -6 9 -3 13
8 156 -89 211 -144 134 -132 218 -308 214 -450 -2 -55 -12 -129 -20 -142 -13
-21 -20 -167 -11 -233 16 -122 90 -220 187 -249 40 -12 147 -14 190 -3 40 10
108 49 132 76 46 51 51 96 26 196 -11 39 -21 79 -23 89 -2 10 -9 33 -15 50 -5
17 -12 47 -15 67 -5 34 -4 36 18 34 40 -5 69 -24 132 -89 176 -178 256 -492
211 -823 -10 -71 -108 -306 -143 -341 -7 -7 -13 -17 -13 -21 0 -4 -8 -16 -17
-27 -10 -10 -31 -37 -47 -59 -34 -46 -25 -37 -178 -193 -125 -127 -136 -147
-100 -192 27 -34 101 -32 180 4 34 16 62 33 62 37 0 5 6 9 14 9 11 0 117 71
161 107 6 5 19 15 31 23 66 46 184 157 261 246 24 27 51 58 60 69 10 11 27 34
37 50 11 17 26 36 33 43 7 7 13 20 13 28 0 8 3 14 8 14 15 0 130 226 157 310
10 30 20 60 24 65 3 6 6 15 8 20 7 34 12 55 21 90 35 132 45 225 45 445 0 160
-6 292 -17 346 -6 28 -16 92 -21 124 -14 101 -68 271 -126 398 -16 35 -29 67
-29 72 0 6 -4 10 -10 10 -5 0 -10 9 -10 20 0 11 -4 20 -10 20 -5 0 -10 5 -10
11 0 10 -115 187 -129 199 -3 3 -31 34 -61 70 -83 98 -249 258 -359 346 -13
10 -28 24 -35 29 -19 16 -68 45 -106 62 -24 11 -42 13 -60 6 -41 -15 -35 -40
67 -238 86 -170 109 -315 64 -409 -28 -56 -59 -82 -124 -101 -193 -57 -278 66
-357 520 -5 33 -12 69 -14 80 -10 46 -47 221 -50 230 -1 6 -8 37 -15 70 -7 33
-14 67 -17 75 -3 8 -6 17 -6 20 0 3 -14 43 -30 90 -34 95 -111 252 -133 270
-8 7 -15 18 -15 24 0 7 -8 21 -17 32 -10 10 -31 37 -48 59 -35 48 -195 205
-208 205 -5 0 -17 8 -26 18 -47 53 -335 201 -441 228 -8 2 -33 8 -55 14 -44
12 -113 28 -160 36 -16 2 -39 7 -49 11 -37 11 -81 9 -113 -4z"/>
<path d="M2546 2322 c-2 -1 -23 -4 -47 -6 -91 -6 -173 -65 -209 -148 -25 -58
-29 -146 -9 -193 7 -16 12 -33 11 -36 -2 -12 83 -94 118 -114 35 -20 56 -20
2220 -23 2011 -2 2189 -1 2228 14 74 29 132 98 164 195 39 115 -28 244 -151
290 l-56 21 -2133 1 c-1174 1 -2135 1 -2136 -1z"/>
</g>
</svg>
